<svg
    width="18"
    height="18"
    viewBox="0 0 18 18"
    fill="none"
    xmlns="http://www.w3.org/2000/svg"
>
    <path
        d="M17.5122 3.24785L14.7523 0.487875C14.102 -0.16241 13.0494 -0.162515 12.3991 0.487875C11.9362 0.950848 1.75943 11.1276 1.56534 11.3217C1.48863 11.3984 1.43438 11.4946 1.40854 11.5999L0.0176533 17.2642C-0.0890811 17.699 0.305442 18.0883 0.735931 17.9825C1.02987 17.9104 6.14008 16.6555 6.4002 16.5916C6.50553 16.5658 6.60179 16.5115 6.67846 16.4348C6.88293 16.2304 17.003 6.11024 17.5122 5.60104C18.1625 4.95075 18.1627 3.89821 17.5122 3.24785ZM1.40474 16.5954L1.46141 16.3647L1.63547 16.5387L1.40474 16.5954ZM2.98386 16.2076L1.79252 15.0163L2.31058 12.9066L5.09355 15.6896L2.98386 16.2076ZM6.25859 15.1752L2.82495 11.7416L11.6915 2.87495L15.1252 6.30859L6.25859 15.1752ZM16.6725 4.76129L15.9867 5.44709L12.5531 2.01345L13.2389 1.32765C13.425 1.14157 13.7264 1.14139 13.9126 1.32765L16.6725 4.08766C16.8587 4.27382 16.8587 4.57507 16.6725 4.76129Z"
        fill="#7987A1"
    />
</svg>