<svg width="18" height="16" viewBox="0 0 18 16" fill="none" xmlns="http://www.w3.org/2000/svg">
<path d="M10.2814 0.285706C6.01714 0.285706 2.57143 3.73998 2.57143 7.99999H0L3.33856 11.3385L3.39854 11.4628L6.85716 7.99999H4.28573C4.28573 4.68715 6.97287 2 10.2857 2C13.5986 2 16.2857 4.68715 16.2857 7.99999C16.2857 11.3128 13.5986 14 10.2857 14C8.62714 14 7.13142 13.3228 6.04716 12.2385L4.83429 13.4514C6.22716 14.8485 8.15143 15.7143 10.2814 15.7143C14.5457 15.7143 18 12.26 18 7.99999C18 3.73998 14.5457 0.285706 10.2814 0.285706Z" fill="#7987A1"/>
</svg>
