<svg width="16" height="16" viewBox="0 0 16 16" fill="none" xmlns="http://www.w3.org/2000/svg">
<path d="M14.75 2.59375H10.9688V1.875C10.9688 0.841125 10.1276 0 9.09375 0H6.90625C5.87238 0 5.03125 0.841125 5.03125 1.875V2.59375H1.25C0.904813 2.59375 0.625 2.87356 0.625 3.21875C0.625 3.56394 0.904813 3.84375 1.25 3.84375H1.89725L2.65894 13.7183C2.65916 13.7212 2.65941 13.7241 2.65966 13.727C2.71641 14.3497 3.00197 14.9247 3.46372 15.3463C3.92547 15.7678 4.52409 16 5.14931 16H10.8507C12.1528 16 13.2231 15.0302 13.3403 13.7443C13.3717 13.4005 13.1184 13.0964 12.7747 13.0651C12.4306 13.0338 12.1268 13.287 12.0955 13.6307C12.0373 14.2688 11.5022 14.75 10.8507 14.75H5.14931C4.50003 14.75 3.96572 14.2634 3.90484 13.6174L3.15097 3.84375H12.849L12.3152 10.7644C12.2887 11.1086 12.5462 11.4091 12.8903 11.4357C12.9067 11.4369 12.9229 11.4375 12.9391 11.4375C13.2624 11.4375 13.5363 11.1883 13.5615 10.8606L14.1027 3.84375H14.75C15.0952 3.84375 15.375 3.56394 15.375 3.21875C15.375 2.87356 15.0952 2.59375 14.75 2.59375ZM9.71875 2.59375H6.28125V1.875C6.28125 1.53038 6.56163 1.25 6.90625 1.25H9.09375C9.43838 1.25 9.71875 1.53038 9.71875 1.875V2.59375Z" fill="#343434" fill-opacity="0.6"/>
<path d="M5.15974 5.09434C4.8149 5.10941 4.54756 5.40116 4.56262 5.74603L4.87512 12.9002C4.88977 13.2358 5.16643 13.4979 5.49905 13.4979C5.50824 13.4979 5.51752 13.4978 5.5268 13.4973C5.87165 13.4823 6.13899 13.1905 6.12393 12.8456L5.81143 5.69144C5.79637 5.34663 5.50405 5.07884 5.15974 5.09434Z" fill="#343434" fill-opacity="0.6"/>
<path d="M10.1876 5.69146L9.87512 12.8456C9.86006 13.1905 10.1274 13.4823 10.4722 13.4973C10.4815 13.4977 10.4908 13.498 10.5 13.498C10.8326 13.498 11.1093 13.2358 11.1239 12.9002L11.4364 5.74605C11.4515 5.40121 11.1841 5.10942 10.8393 5.09436C10.495 5.07896 10.2027 5.34661 10.1876 5.69146Z" fill="#343434" fill-opacity="0.6"/>
<path d="M7.375 5.71875V12.8729C7.375 13.2181 7.65481 13.4979 8 13.4979C8.34519 13.4979 8.625 13.2181 8.625 12.8729V5.71875C8.625 5.37356 8.34519 5.09375 8 5.09375C7.65481 5.09375 7.375 5.37356 7.375 5.71875Z" fill="#343434" fill-opacity="0.6"/>
</svg>
